<?xml version="1.0" standalone="no"?>
<!DOCTYPE svg PUBLIC "-//W3C//DTD SVG 20010904//EN"
 "http://www.w3.org/TR/2001/REC-SVG-20010904/DTD/svg10.dtd">
<svg version="1.0" xmlns="http://www.w3.org/2000/svg"
 width="512.000000pt" height="512.000000pt" viewBox="0 0 512.000000 512.000000"
 preserveAspectRatio="xMidYMid meet">

<g transform="translate(0.000000,512.000000) scale(0.100000,-0.100000)"
fill="#000000" stroke="none">
<path d="M1703 3038 c-4 -7 -7 -20 -8 -29 0 -10 -12 -31 -27 -47 -20 -22 -23
-32 -13 -36 7 -2 16 -18 20 -35 3 -16 13 -35 22 -42 13 -11 18 -10 34 10 11
13 19 32 19 42 0 31 39 24 51 -8 20 -58 22 -60 26 -40 3 10 0 24 -6 30 -5 7
-13 32 -17 55 -6 40 -6 42 20 42 19 0 30 -8 38 -26 11 -23 13 -24 24 -9 10 13
16 14 33 5 12 -6 22 -7 22 -3 1 4 4 -7 8 -26 4 -22 12 -35 24 -37 13 -2 15 2
8 14 -5 10 -5 26 1 41 7 20 6 28 -8 38 -10 7 -26 13 -35 13 -10 0 -19 5 -21
12 -2 6 -22 13 -43 14 -21 2 -42 9 -46 16 -5 8 -11 4 -18 -15 -12 -32 -31 -35
-38 -7 -4 15 -11 19 -24 15 -14 -5 -17 -2 -13 9 7 19 -21 22 -33 4z"/>
<path d="M1603 2943 c-8 -3 -12 -20 -12 -41 1 -28 3 -31 6 -12 3 14 12 33 20
43 16 17 10 20 -14 10z"/>
<path d="M1781 2791 l-34 -28 32 -5 c20 -3 30 -1 28 6 -2 6 0 21 4 34 10 27
11 27 -30 -7z"/>
<path d="M3470 2729 c0 -5 4 -9 9 -9 5 0 16 -3 25 -6 9 -3 16 -2 16 4 0 5 -11
12 -25 14 -14 3 -25 1 -25 -3z"/>
<path d="M3048 2713 c6 -2 18 -2 25 0 6 3 1 5 -13 5 -14 0 -19 -2 -12 -5z"/>
<path d="M2642 2620 c1 -47 3 -70 5 -52 2 18 9 30 14 27 13 -8 11 12 -5 65
l-15 45 1 -85z"/>
<path d="M2995 2640 c-3 -5 3 -11 14 -11 12 -1 26 -2 33 -3 6 -1 13 5 16 12 5
15 -54 17 -63 2z"/>
<path d="M3111 2609 c-14 -41 -15 -39 12 -39 28 0 70 -28 61 -41 -3 -5 -24
-19 -47 -30 -32 -17 -45 -19 -58 -10 -27 16 -62 -38 -63 -98 0 -42 2 -46 25
-49 23 -3 25 0 21 28 -8 58 45 83 65 30 9 -24 17 -30 42 -30 20 0 35 8 46 23
16 22 16 22 30 3 21 -28 20 -30 -30 -74 -46 -40 -46 -50 -3 -65 14 -5 19 1 24
30 4 21 27 59 56 94 l49 59 29 -15 c16 -8 38 -24 48 -36 18 -19 20 -19 27 -2
4 10 11 33 15 51 7 29 6 32 -15 32 -12 0 -30 9 -40 19 -18 21 -105 65 -196
101 -30 12 -61 28 -70 36 -15 14 -18 12 -28 -17z m199 -168 c0 -21 -23 -44
-33 -34 -12 11 -8 51 6 56 17 6 27 -1 27 -22z"/>
<path d="M2990 2559 c-63 -42 -69 -57 -22 -54 20 1 39 3 42 4 8 1 33 71 28 76
-2 2 -24 -10 -48 -26z"/>
<path d="M2721 2523 c-7 -21 -15 -44 -17 -50 -3 -7 -1 -13 4 -13 10 0 36 89
29 96 -2 2 -9 -13 -16 -33z"/>
<path d="M3890 2500 c0 -5 -7 -7 -16 -3 -14 5 -16 1 -9 -28 5 -19 8 -74 8
-124 -1 -72 1 -82 7 -50 12 58 24 215 16 215 -3 0 -6 -4 -6 -10z"/>
<path d="M1300 2447 c0 -7 16 -37 36 -67 32 -49 74 -146 74 -173 0 -10 -81 96
-99 131 -7 13 -15 21 -18 18 -3 -2 12 -33 33 -68 59 -98 128 -190 132 -178 3
7 -1 22 -7 33 -19 38 -41 109 -36 117 3 5 -8 28 -24 52 -16 24 -39 67 -51 96
-21 49 -40 68 -40 39z"/>
<path d="M3845 2440 c-3 -5 -1 -10 4 -10 6 0 11 5 11 10 0 6 -2 10 -4 10 -3 0
-8 -4 -11 -10z"/>
<path d="M3815 2419 c-10 -15 3 -25 16 -12 7 7 7 13 1 17 -6 3 -14 1 -17 -5z"/>
<path d="M2780 2401 c-13 -25 -13 -34 0 -26 16 10 32 45 21 45 -6 0 -15 -9
-21 -19z"/>
<path d="M577 2381 c-3 -11 1 -50 8 -88 7 -37 11 -70 10 -72 -4 -3 -22 36 -46
98 -5 13 -12 21 -15 19 -3 -3 23 -73 56 -154 34 -82 77 -190 95 -241 32 -89
97 -217 116 -229 10 -6 -13 52 -37 96 -31 57 -54 106 -54 118 0 21 25 8 28
-14 5 -30 12 -47 18 -42 2 3 -2 45 -11 93 -8 48 -15 96 -15 106 0 36 17 19 42
-43 41 -100 92 -211 110 -238 32 -50 169 -390 209 -517 12 -40 26 -70 31 -67
4 3 8 29 8 59 0 30 4 57 10 60 5 3 23 -21 40 -54 30 -60 30 -62 32 -238 l1
-178 8 130 c3 72 7 143 8 160 1 21 4 26 12 18 13 -13 28 -180 28 -303 0 -106
-25 -195 -54 -195 -21 0 -22 8 -11 110 l5 50 -8 -47 c-5 -26 -12 -52 -16 -59
-11 -17 -81 -4 -144 26 -30 15 -79 29 -108 32 -71 8 -84 -2 -312 -231 -180
-180 -185 -186 -183 -223 2 -35 -2 -42 -45 -75 -90 -67 -168 -112 -278 -160
-83 -36 -111 -52 -113 -68 l-3 -20 1556 0 1557 0 -63 72 c-172 194 -171 194
-333 274 -83 41 -176 80 -206 88 -39 9 -59 20 -70 38 -8 14 -24 37 -34 52 -17
24 -18 39 -13 129 4 56 14 129 23 162 9 33 20 77 25 98 5 22 24 70 42 108 19
38 33 69 32 69 -5 0 -312 -106 -390 -134 -68 -25 -109 -35 -129 -32 -30 6 -88
52 -218 174 -43 39 -82 72 -88 72 -5 0 -17 14 -26 32 -9 17 -65 89 -126 160
-123 145 -238 294 -238 310 0 5 17 -3 38 -19 67 -52 172 -116 179 -109 4 3
-15 29 -42 56 -27 28 -45 50 -40 50 4 0 33 -14 63 -31 30 -17 56 -28 59 -25 6
5 -64 113 -80 123 -5 3 5 -15 22 -41 18 -26 31 -49 29 -51 -16 -16 -281 180
-397 295 -14 14 -35 32 -46 40 -45 34 38 -53 112 -117 105 -92 234 -215 229
-221 -6 -5 -113 68 -201 137 -105 82 -286 267 -339 346 -33 49 -45 62 -40 41
6 -26 5 -28 -17 -21 -13 4 -25 12 -27 16 -2 5 -13 9 -24 9 -15 0 -18 5 -13 20
4 14 2 20 -8 20 -10 0 -20 24 -32 78 -10 42 -20 81 -22 86 -13 20 -22 -24 -17
-76 4 -32 3 -58 -2 -58 -27 1 -61 54 -75 120 -12 55 -24 70 -32 41z m835 -908
c20 -23 32 -63 20 -63 -10 0 -26 29 -24 43 1 4 -7 7 -17 7 -24 0 -36 16 -19
23 21 9 24 8 40 -10z m947 -749 c18 -22 21 -41 21 -115 0 -63 -4 -92 -15 -102
-30 -31 -251 -48 -359 -29 l-40 7 40 31 c21 16 49 36 60 44 12 8 55 40 95 70
104 78 163 119 171 120 4 0 16 -12 27 -26z"/>
<path d="M1140 2372 c0 -5 7 -17 15 -28 15 -19 20 -8 9 20 -6 17 -24 22 -24 8z"/>
<path d="M2645 2315 c2 -68 11 -79 20 -26 5 28 2 46 -7 60 -13 18 -14 15 -13
-34z"/>
<path d="M2490 2350 c0 -8 5 -22 10 -30 9 -13 10 -13 10 0 0 8 -5 22 -10 30
-9 13 -10 13 -10 0z"/>
<path d="M2764 2326 c-12 -5 -27 -18 -33 -28 -11 -18 -10 -18 11 -7 25 13 53
38 47 42 -2 2 -14 -1 -25 -7z"/>
<path d="M2908 2323 c-30 -36 -30 -47 0 -19 18 17 32 31 32 33 0 9 -19 1 -32
-14z"/>
<path d="M3470 2297 c-16 -23 -48 -53 -70 -67 -38 -24 -51 -40 -30 -40 5 0 13
6 17 13 7 11 28 19 123 45 32 9 38 62 9 80 -16 10 -22 6 -49 -31z"/>
<path d="M3750 2263 c-43 -83 -47 -94 -22 -65 33 37 46 28 39 -28 -9 -72 -21
-90 -62 -90 -41 0 -42 2 -14 47 12 19 19 37 16 40 -3 3 -22 -21 -43 -53 -137
-219 -203 -304 -270 -350 -30 -20 -54 -39 -54 -40 0 -2 15 -10 34 -19 33 -16
35 -15 59 8 15 13 46 29 69 36 24 7 76 28 117 47 41 19 76 32 78 30 6 -6 -124
-148 -177 -193 -25 -22 -65 -51 -90 -65 -50 -28 -138 -63 -144 -57 -3 2 4 22
14 44 45 93 11 73 -156 -92 l-149 -148 -167 -85 c-91 -47 -165 -86 -163 -88 5
-6 187 77 260 119 41 23 99 64 128 89 108 96 176 140 218 140 22 0 56 7 77 16
20 9 48 20 62 26 l25 9 -24 -25 c-28 -29 -13 -35 21 -8 54 42 141 129 218 216
46 53 86 94 88 91 2 -2 -12 -41 -32 -87 -35 -80 -42 -108 -31 -108 20 0 76 40
119 85 66 67 137 158 129 165 -3 3 -8 -2 -11 -10 -14 -41 -212 -224 -212 -196
0 8 60 160 70 178 6 10 10 27 10 38 0 20 0 20 -35 0 -83 -47 -321 -138 -332
-127 -3 3 15 18 39 33 80 51 228 185 228 207 0 6 -8 3 -18 -6 -25 -22 -42 -21
-42 2 0 27 30 59 63 67 28 7 35 -4 15 -24 -9 -9 -8 -12 5 -12 9 0 17 7 17 15
0 8 4 15 9 15 6 0 16 11 23 24 7 13 24 43 36 66 14 24 22 53 19 66 -2 13 0 25
6 27 14 4 -1 97 -16 97 -7 0 -28 -30 -47 -67z m-175 -351 c-15 -16 -16 -15 -4
12 7 15 15 23 17 16 3 -7 -3 -19 -13 -28z"/>
<path d="M4346 2285 c-9 -21 -16 -45 -16 -54 0 -9 -7 -25 -15 -35 -8 -11 -15
-28 -15 -38 0 -11 -13 -31 -29 -46 -16 -15 -49 -61 -74 -102 -40 -66 -44 -76
-29 -84 9 -5 18 -10 20 -11 1 -1 -2 -15 -9 -31 -6 -16 -12 -47 -14 -69 -2 -22
-10 -60 -18 -85 -30 -92 -37 -127 -77 -385 -20 -124 -25 -190 -9 -120 5 22 11
49 14 61 2 11 16 33 30 50 14 16 48 63 77 104 l51 75 -6 -50 c-9 -87 -27 -179
-41 -220 -8 -22 -24 -73 -36 -112 -12 -40 -25 -73 -28 -73 -4 0 -13 -12 -20
-27 -9 -20 -9 -30 -1 -37 8 -7 13 -8 15 -1 2 6 22 37 45 70 74 108 232 455
216 472 -2 2 -16 -30 -32 -69 -31 -80 -102 -228 -110 -228 -3 0 4 23 15 50 11
28 19 54 18 58 -1 4 6 32 15 62 60 202 108 461 122 660 3 47 8 105 11 130 4
43 4 44 -12 25 -8 -11 -27 -44 -40 -74 -29 -64 -65 -124 -70 -118 -3 2 4 29
15 58 23 62 62 221 56 227 -2 2 -11 -13 -19 -33z"/>
<path d="M1550 2295 c0 -8 7 -15 16 -15 14 0 14 3 4 15 -7 8 -14 15 -16 15 -2
0 -4 -7 -4 -15z"/>
<path d="M1561 2260 c0 -8 6 -28 14 -45 17 -39 18 -21 0 25 -7 19 -14 28 -14
20z"/>
<path d="M4101 2206 c-6 -16 -14 -32 -16 -37 -3 -4 5 -19 19 -33 l23 -26 7 37
c8 53 7 75 -3 69 -5 -4 -11 0 -14 6 -3 7 -10 0 -16 -16z"/>
<path d="M1219 2202 c5 -10 18 -25 27 -33 11 -9 9 -2 -6 19 -26 35 -36 42 -21
14z"/>
<path d="M1740 2200 c0 -5 10 -15 23 -21 22 -12 22 -12 3 10 -21 23 -26 26
-26 11z"/>
<path d="M4673 2157 c-12 -39 -2 -108 11 -76 4 9 6 38 4 65 l-3 49 -12 -38z"/>
<path d="M1285 2129 c26 -33 169 -159 181 -159 11 0 -96 102 -156 150 -38 30
-42 31 -25 9z"/>
<path d="M1205 2070 c10 -11 20 -20 23 -20 3 0 -3 9 -13 20 -10 11 -20 20 -23
20 -3 0 3 -9 13 -20z"/>
<path d="M1310 2065 c0 -5 6 -36 14 -67 7 -32 11 -60 8 -63 -4 -3 -21 11 -40
32 -31 35 -30 33 8 -23 23 -34 53 -72 67 -85 l26 -24 -16 25 c-9 14 -23 60
-31 103 -13 67 -35 131 -36 102z"/>
<path d="M1480 2066 c0 -2 8 -10 18 -17 15 -13 16 -12 3 4 -13 16 -21 21 -21
13z"/>
<path d="M2372 2017 c-42 -93 -38 -131 8 -67 16 22 20 41 18 72 l-4 43 -22
-48z"/>
<path d="M1230 2036 c0 -2 8 -10 18 -17 15 -13 16 -12 3 4 -13 16 -21 21 -21
13z"/>
<path d="M4013 2024 c-3 -8 -1 -25 5 -37 10 -20 11 -18 11 16 1 39 -5 48 -16
21z"/>
<path d="M1036 2005 c4 -8 11 -15 16 -15 6 0 5 6 -2 15 -7 8 -14 15 -16 15 -2
0 -1 -7 2 -15z"/>
<path d="M4802 1990 c0 -14 2 -19 5 -12 2 6 2 18 0 25 -3 6 -5 1 -5 -13z"/>
<path d="M1645 1943 c40 -55 66 -71 43 -29 -7 13 -29 37 -48 52 l-34 29 39
-52z"/>
<path d="M1550 1976 c0 -2 8 -10 18 -17 15 -13 16 -12 3 4 -13 16 -21 21 -21
13z"/>
<path d="M4794 1936 c-3 -8 -4 -23 -2 -33 3 -11 6 -6 9 15 6 34 2 42 -7 18z"/>
<path d="M1601 1915 c30 -38 34 -49 15 -42 -28 11 -8 -11 26 -29 16 -8 31 -14
33 -12 2 2 -18 26 -43 53 -26 28 -40 42 -31 30z"/>
<path d="M1550 1910 c0 -5 10 -15 23 -21 22 -12 22 -12 3 10 -21 23 -26 26
-26 11z"/>
<path d="M4001 1854 c0 -11 3 -14 6 -6 3 7 2 16 -1 19 -3 4 -6 -2 -5 -13z"/>
<path d="M4782 1850 c0 -14 2 -19 5 -12 2 6 2 18 0 25 -3 6 -5 1 -5 -13z"/>
<path d="M4055 1830 c-16 -17 -16 -20 -3 -15 9 4 19 13 22 21 7 19 2 18 -19
-6z"/>
<path d="M1390 1826 c0 -2 8 -10 18 -17 15 -13 16 -12 3 4 -13 16 -21 21 -21
13z"/>
<path d="M4485 1800 c-11 -13 -21 -16 -25 -10 -3 6 -19 -33 -34 -86 -15 -53
-25 -98 -23 -101 3 -2 13 26 22 62 11 39 32 85 52 111 35 46 39 59 8 24z"/>
<path d="M4772 1800 c0 -14 2 -19 5 -12 2 6 2 18 0 25 -3 6 -5 1 -5 -13z"/>
<path d="M4762 1750 c0 -14 2 -19 5 -12 2 6 2 18 0 25 -3 6 -5 1 -5 -13z"/>
<path d="M1944 1711 c11 -17 75 -50 81 -41 6 9 -14 23 -60 40 -14 5 -24 6 -21
1z"/>
<path d="M4731 1608 c-48 -215 -124 -400 -176 -428 -26 -14 -33 -30 -14 -30
16 0 68 61 94 110 13 25 35 81 49 124 27 85 80 315 73 322 -2 2 -14 -42 -26
-98z"/>
<path d="M3765 1633 c-101 -92 -160 -133 -242 -168 -91 -38 -223 -70 -256 -61
-12 3 -29 1 -37 -4 -27 -17 101 -10 175 10 40 10 74 14 79 9 15 -14 -83 -166
-156 -243 -38 -39 -68 -72 -68 -73 0 -5 101 37 152 64 65 33 226 160 268 211
32 39 154 286 148 301 -2 5 -30 -16 -63 -46z"/>
<path d="M2140 1622 c0 -13 48 -32 78 -31 25 0 24 2 -13 19 -44 21 -65 24 -65
12z"/>
<path d="M3926 1544 c-10 -31 -16 -58 -13 -60 2 -2 12 21 22 51 9 31 15 58 13
60 -2 3 -12 -20 -22 -51z"/>
<path d="M3848 1529 c-14 -35 -37 -103 -52 -151 -18 -61 -38 -102 -68 -140
-50 -64 -144 -162 -177 -184 -23 -16 -23 -16 2 18 37 48 20 64 -37 32 -23 -13
-71 -34 -106 -48 -108 -40 -351 -49 -320 -11 6 8 19 16 28 18 9 2 4 3 -12 1
-16 -2 -46 -4 -68 -4 -63 0 -41 -20 52 -47 78 -23 91 -24 160 -15 41 6 102 20
135 32 95 33 99 34 91 22 -4 -6 -2 -21 4 -32 9 -17 8 -20 -8 -20 -11 0 -26 -7
-33 -16 -8 -9 -32 -25 -54 -34 -22 -9 -46 -25 -54 -34 -40 -48 83 15 204 104
28 21 87 76 130 121 77 83 78 84 72 48 -4 -27 -2 -36 9 -36 13 0 18 13 17 45
-1 6 3 12 8 12 4 0 13 19 20 43 6 23 16 52 22 64 6 13 8 26 4 29 -3 4 -1 16 4
27 16 29 61 197 56 210 -2 6 -15 -18 -29 -54z"/>
<path d="M2310 1572 c0 -12 67 -28 77 -18 10 9 2 14 -39 21 -25 5 -38 3 -38
-3z"/>
<path d="M3894 1444 c-17 -71 -144 -338 -190 -401 -13 -17 -24 -35 -24 -39 0
-4 -16 -26 -35 -50 -37 -45 -41 -54 -25 -54 17 0 132 181 186 294 54 113 109
264 100 273 -3 3 -8 -8 -12 -23z"/>
<path d="M4056 944 c-5 -14 -4 -15 9 -4 17 14 19 20 6 20 -5 0 -12 -7 -15 -16z"/>
</g>
</svg>
